<svg width="30" height="30" viewBox="0 0 30 30" fill="none" xmlns="http://www.w3.org/2000/svg">
<path d="M27.3398 1.13203H2.6625C1.81725 1.13203 1.13203 1.81725 1.13203 2.6625V27.3398C1.13203 28.1851 1.81725 28.8703 2.6625 28.8703H27.3398C28.1851 28.8703 28.8703 28.1851 28.8703 27.3398V2.6625C28.8703 1.81725 28.1851 1.13203 27.3398 1.13203Z" fill="#3D5A98"/>
<path d="M20.2688 28.868V18.1266H23.8734L24.4125 13.9406H20.2688V11.2687C20.2688 10.057 20.6063 9.22969 22.343 9.22969H24.5602V5.47968C23.4865 5.36779 22.4076 5.31459 21.3281 5.32031C18.1359 5.32031 15.9375 7.26562 15.9375 10.8539V13.9406H12.3328V18.1266H15.9375V28.868H20.2688Z" fill="white"/>
</svg>
