<svg width="20" height="21" viewBox="0 0 20 21" fill="none" xmlns="http://www.w3.org/2000/svg">
<g clip-path="url(#clip0_25_141)">
<path fill-rule="evenodd" clip-rule="evenodd" d="M18.896 0.911377H1.104C0.494 0.911377 0 1.40538 0 2.01538V19.8074C0 20.4174 0.494 20.9114 1.104 20.9114H10.682V13.1664H8.076V10.1484H10.682V7.92138C10.682 5.33738 12.26 3.93138 14.565 3.93138C15.669 3.93138 16.617 4.01338 16.894 4.05038V6.75038H15.296C14.042 6.75038 13.8 7.34638 13.8 8.22038V10.1474H16.789L16.399 13.1654H13.799V20.9114H18.896C19.506 20.9114 20 20.4174 20 19.8074V2.01538C20 1.40538 19.506 0.911377 18.896 0.911377Z" fill="#484848"/>
</g>
<defs>
<clipPath id="clip0_25_141">
<rect width="20" height="20" fill="white" transform="translate(0 0.911377)"/>
</clipPath>
</defs>
</svg>
