<svg width="31" height="30" viewBox="0 0 31 30" fill="none" xmlns="http://www.w3.org/2000/svg">
<path d="M17 15.2625L20.375 18.6375C20.65 18.9125 20.7875 19.2565 20.7875 19.6695C20.7875 20.0825 20.65 20.4385 20.375 20.7375C20.075 21.0375 19.7185 21.1875 19.3055 21.1875C18.8925 21.1875 18.5365 21.0375 18.2375 20.7375L14.45 16.95C14.3 16.8 14.1875 16.631 14.1125 16.443C14.0375 16.255 14 16.0615 14 15.8625V10.5C14 10.075 14.144 9.7185 14.432 9.4305C14.72 9.1425 15.076 8.999 15.5 9C15.925 9 16.2815 9.144 16.5695 9.432C16.8575 9.72 17.001 10.076 17 10.5V15.2625ZM15.5 6C15.075 6 14.7185 5.856 14.4305 5.568C14.1425 5.28 13.999 4.924 14 4.5V3H17V4.5C17 4.925 16.856 5.2815 16.568 5.5695C16.28 5.8575 15.924 6.001 15.5 6ZM24.5 15C24.5 14.575 24.644 14.2185 24.932 13.9305C25.22 13.6425 25.576 13.499 26 13.5H27.5V16.5H26C25.575 16.5 25.2185 16.356 24.9305 16.068C24.6425 15.78 24.499 15.424 24.5 15ZM15.5 24C15.925 24 16.2815 24.144 16.5695 24.432C16.8575 24.72 17.001 25.076 17 25.5V27H14V25.5C14 25.075 14.144 24.7185 14.432 24.4305C14.72 24.1425 15.076 23.999 15.5 24ZM6.5 15C6.5 15.425 6.356 15.7815 6.068 16.0695C5.78 16.3575 5.424 16.501 5 16.5H3.5V13.5H5C5.425 13.5 5.7815 13.644 6.0695 13.932C6.3575 14.22 6.501 14.576 6.5 15ZM15.5 30C13.425 30 11.475 29.606 9.65 28.818C7.825 28.03 6.2375 26.9615 4.8875 25.6125C3.5375 24.2625 2.469 22.675 1.682 20.85C0.895 19.025 0.501 17.075 0.5 15C0.5 12.925 0.894 10.975 1.682 9.15C2.47 7.325 3.5385 5.7375 4.8875 4.3875C6.2375 3.0375 7.825 1.969 9.65 1.182C11.475 0.395 13.425 0.001 15.5 0C17.575 0 19.525 0.394 21.35 1.182C23.175 1.97 24.7625 3.0385 26.1125 4.3875C27.4625 5.7375 28.5315 7.325 29.3195 9.15C30.1075 10.975 30.501 12.925 30.5 15C30.5 17.075 30.106 19.025 29.318 20.85C28.53 22.675 27.4615 24.2625 26.1125 25.6125C24.7625 26.9625 23.175 28.0315 21.35 28.8195C19.525 29.6075 17.575 30.001 15.5 30ZM27.5 15C27.5 11.65 26.3375 8.8125 24.0125 6.4875C21.6875 4.1625 18.85 3 15.5 3C12.15 3 9.3125 4.1625 6.9875 6.4875C4.6625 8.8125 3.5 11.65 3.5 15C3.5 18.35 4.6625 21.1875 6.9875 23.5125C9.3125 25.8375 12.15 27 15.5 27C18.85 27 21.6875 25.8375 24.0125 23.5125C26.3375 21.1875 27.5 18.35 27.5 15Z" fill="#FF8541"/>
</svg>
