<svg width="15" height="13" viewBox="0 0 15 13" fill="none" xmlns="http://www.w3.org/2000/svg">
<path d="M1.5 12.0638C1.0875 12.0638 0.734251 11.9168 0.440251 11.6228C0.146251 11.3288 -0.000498727 10.9758 1.27334e-06 10.5638V1.56384C1.27334e-06 1.15134 0.147001 0.798094 0.441001 0.504094C0.735001 0.210094 1.088 0.063344 1.5 0.063844H13.5C13.9125 0.063844 14.2657 0.210844 14.5597 0.504844C14.8537 0.798844 15.0005 1.15184 15 1.56384V10.5638C15 10.9763 14.853 11.3296 14.559 11.6236C14.265 11.9176 13.912 12.0643 13.5 12.0638H1.5ZM7.5 6.81384L1.5 3.06384V10.5638H13.5V3.06384L7.5 6.81384ZM7.5 5.31384L13.5 1.56384H1.5L7.5 5.31384ZM1.5 3.06384V1.56384V10.5638V3.06384Z" fill="#FF8541"/>
</svg>
