<svg width="15" height="19" viewBox="0 0 15 19" fill="none" xmlns="http://www.w3.org/2000/svg">
<path d="M7.5 16.3295C9.40625 14.5795 10.8203 12.9895 11.7422 11.5595C12.6641 10.1295 13.125 8.86009 13.125 7.75134C13.125 6.04822 12.5819 4.65384 11.4956 3.56822C10.4094 2.48259 9.0775 1.93947 7.5 1.93884C5.92188 1.93884 4.58969 2.48197 3.50344 3.56822C2.41719 4.65447 1.87437 6.04884 1.875 7.75134C1.875 8.86072 2.33594 10.1304 3.25781 11.5604C4.17969 12.9904 5.59375 14.5801 7.5 16.3295ZM7.5 18.8138C4.98438 16.6732 3.10562 14.6851 1.86375 12.8495C0.621875 11.0138 0.000625 9.31447 0 7.75134C0 5.40759 0.754063 3.54041 2.26219 2.14978C3.77031 0.759155 5.51625 0.0638428 7.5 0.0638428C9.48438 0.0638428 11.2306 0.759155 12.7387 2.14978C14.2469 3.54041 15.0006 5.40759 15 7.75134C15 9.31384 14.3787 11.0132 13.1362 12.8495C11.8937 14.6857 10.015 16.6738 7.5 18.8138ZM4.6875 10.3763H6.5625V7.79822H8.4375V10.3763H10.3125V5.92322L7.5 4.04822L4.6875 5.92322V10.3763Z" fill="#FF8541"/>
</svg>
