<svg width="20" height="21" viewBox="0 0 20 21" fill="none" xmlns="http://www.w3.org/2000/svg">
<path d="M10 8.43138C9.5095 8.43138 9.03002 8.57683 8.62219 8.84933C8.21435 9.12184 7.89648 9.50916 7.70878 9.96232C7.52107 10.4155 7.47196 10.9141 7.56765 11.3952C7.66334 11.8763 7.89954 12.3182 8.24638 12.665C8.59321 13.0118 9.0351 13.248 9.51618 13.3437C9.99725 13.4394 10.4959 13.3903 10.9491 13.2026C11.4022 13.0149 11.7895 12.697 12.062 12.2892C12.3346 11.8814 12.48 11.4019 12.48 10.9114C12.48 10.5857 12.4159 10.2632 12.2912 9.96232C12.1666 9.66144 11.9839 9.38804 11.7536 9.15775C11.5233 8.92746 11.2499 8.74479 10.9491 8.62016C10.6482 8.49552 10.3257 8.43138 10 8.43138ZM19.93 5.98138C19.9247 5.20914 19.7825 4.44395 19.51 3.72138C19.3093 3.19264 18.9987 2.71247 18.5988 2.31256C18.1989 1.91265 17.7187 1.60209 17.19 1.40138C16.4674 1.12884 15.7022 0.986638 14.93 0.981377C13.64 0.911377 13.26 0.911377 10 0.911377C6.74 0.911377 6.36 0.911377 5.07 0.981377C4.29776 0.986638 3.53257 1.12884 2.81 1.40138C2.28126 1.60209 1.80109 1.91265 1.40119 2.31256C1.00128 2.71247 0.690718 3.19264 0.49 3.72138C0.217464 4.44395 0.0752609 5.20914 0.0699999 5.98138C-6.70552e-08 7.27138 0 7.65138 0 10.9114C0 14.1714 -6.70552e-08 14.5514 0.0699999 15.8414C0.0807639 16.6163 0.222774 17.3839 0.49 18.1114C0.689828 18.6377 1.00013 19.1151 1.4 19.5114C1.79819 19.9137 2.27939 20.2242 2.81 20.4214C3.53257 20.6939 4.29776 20.8361 5.07 20.8414C6.36 20.9114 6.74 20.9114 10 20.9114C13.26 20.9114 13.64 20.9114 14.93 20.8414C15.7022 20.8361 16.4674 20.6939 17.19 20.4214C17.7206 20.2242 18.2018 19.9137 18.6 19.5114C18.9999 19.1151 19.3102 18.6377 19.51 18.1114C19.7823 17.3853 19.9244 16.6168 19.93 15.8414C20 14.5514 20 14.1714 20 10.9114C20 7.65138 20 7.27138 19.93 5.98138ZM17.39 13.9814C17.3579 14.5985 17.2262 15.2063 17 15.7814C16.8059 16.2611 16.5173 16.6968 16.1514 17.0627C15.7854 17.4286 15.3497 17.7172 14.87 17.9114C14.2895 18.125 13.6783 18.2432 13.06 18.2614H6.94C6.32173 18.2432 5.71049 18.125 5.13 17.9114C4.6341 17.7271 4.18628 17.4331 3.82 17.0514C3.45767 16.6926 3.17784 16.2592 3 15.7814C2.78556 15.2015 2.67061 14.5896 2.66 13.9714V7.85138C2.67061 7.2332 2.78556 6.62126 3 6.04138C3.18428 5.54548 3.47827 5.09765 3.86 4.73138C4.22033 4.371 4.65326 4.09147 5.13 3.91138C5.71049 3.69778 6.32173 3.57959 6.94 3.56138H13.06C13.6783 3.57959 14.2895 3.69778 14.87 3.91138C15.3659 4.09566 15.8137 4.38965 16.18 4.77138C16.5423 5.13013 16.8222 5.56351 17 6.04138C17.2136 6.62187 17.3318 7.23311 17.35 7.85138V10.9114C17.35 12.9714 17.42 13.1814 17.39 13.9714V13.9814ZM15.79 6.54138C15.6709 6.21836 15.4832 5.92502 15.2398 5.68159C14.9964 5.43816 14.703 5.25044 14.38 5.13138C13.9365 4.97764 13.4693 4.90317 13 4.91138H7C6.52827 4.91599 6.06107 5.00401 5.62 5.17138C5.30193 5.28503 5.01169 5.46509 4.76858 5.69958C4.52547 5.93407 4.33506 6.21761 4.21 6.53138C4.06478 6.97674 3.99383 7.44297 4 7.91138V13.9114C4.00991 14.3826 4.09777 14.8489 4.26 15.2914C4.37906 15.6144 4.56678 15.9077 4.81021 16.1512C5.05364 16.3946 5.34698 16.5823 5.67 16.7014C6.09667 16.8583 6.54565 16.9461 7 16.9614H13C13.4717 16.9568 13.9389 16.8687 14.38 16.7014C14.703 16.5823 14.9964 16.3946 15.2398 16.1512C15.4832 15.9077 15.6709 15.6144 15.79 15.2914C15.9574 14.8503 16.0454 14.3831 16.05 13.9114V7.91138C16.0503 7.43918 15.9621 6.9711 15.79 6.53138V6.54138ZM10 14.7314C9.49882 14.7314 9.00257 14.6325 8.53966 14.4404C8.07676 14.2483 7.6563 13.9668 7.30238 13.6119C6.94846 13.2571 6.66803 12.8359 6.47714 12.3725C6.28626 11.9091 6.18868 11.4126 6.19 10.9114C6.19 10.1554 6.4143 9.41647 6.83449 8.78806C7.25468 8.15965 7.85187 7.67004 8.55047 7.38121C9.24907 7.09238 10.0177 7.01732 10.7589 7.16553C11.5002 7.31373 12.1808 7.67855 12.7147 8.21378C13.2485 8.74902 13.6116 9.43062 13.7578 10.1723C13.9041 10.9139 13.827 11.6823 13.5363 12.3802C13.2457 13.078 12.7545 13.6739 12.125 14.0925C11.4955 14.511 10.7559 14.7334 10 14.7314ZM14 7.84138C13.7789 7.81798 13.5744 7.7136 13.4257 7.54835C13.277 7.3831 13.1947 7.16867 13.1947 6.94638C13.1947 6.72408 13.277 6.50966 13.4257 6.34441C13.5744 6.17916 13.7789 6.07478 14 6.05138C14.2211 6.07478 14.4256 6.17916 14.5743 6.34441C14.723 6.50966 14.8053 6.72408 14.8053 6.94638C14.8053 7.16867 14.723 7.3831 14.5743 7.54835C14.4256 7.7136 14.2211 7.81798 14 7.84138Z" fill="#484848"/>
</svg>
