<svg width="15" height="15" viewBox="0 0 15 15" fill="none" xmlns="http://www.w3.org/2000/svg">
<path d="M5.27344 0.46875C5.04034 0.46875 4.81678 0.561349 4.65196 0.726176C4.48713 0.891003 4.39453 1.11456 4.39453 1.34766V4.86328H0.878906C0.645806 4.86328 0.422253 4.95588 0.257426 5.12071C0.0925988 5.28553 0 5.50909 0 5.74219V9.25781C0 9.49091 0.0925988 9.71447 0.257426 9.87929C0.422253 10.0441 0.645806 10.1367 0.878906 10.1367H4.39453V13.6523C4.39453 13.8854 4.48713 14.109 4.65196 14.2738C4.81678 14.4387 5.04034 14.5312 5.27344 14.5312H8.78906C9.02216 14.5312 9.24572 14.4387 9.41054 14.2738C9.57537 14.109 9.66797 13.8854 9.66797 13.6523V10.1367H13.1836C13.4167 10.1367 13.6402 10.0441 13.8051 9.87929C13.9699 9.71447 14.0625 9.49091 14.0625 9.25781V5.74219C14.0625 5.50909 13.9699 5.28553 13.8051 5.12071C13.6402 4.95588 13.4167 4.86328 13.1836 4.86328H9.66797V1.34766C9.66797 1.11456 9.57537 0.891003 9.41054 0.726176C9.24572 0.561349 9.02216 0.46875 8.78906 0.46875H5.27344Z" fill="#B4CB74"/>
</svg>
