<svg width="20" height="21" viewBox="0 0 20 21" fill="none" xmlns="http://www.w3.org/2000/svg">
<path fill-rule="evenodd" clip-rule="evenodd" d="M7.429 7.88038H11.143V9.73038C11.678 8.66638 13.05 7.71038 15.111 7.71038C19.062 7.71038 20 9.82838 20 13.7144V20.9114H16V14.5994C16 12.3864 15.465 11.1384 14.103 11.1384C12.214 11.1384 11.429 12.4834 11.429 14.5984V20.9114H7.429V7.88038ZM0.57 20.7414H4.57V7.71038H0.57V20.7414ZM5.143 3.46138C5.14315 3.79665 5.07666 4.12861 4.94739 4.43796C4.81812 4.74732 4.62865 5.02789 4.39 5.26338C3.9064 5.744 3.25181 6.01303 2.57 6.01138C1.88939 6.01092 1.23631 5.74258 0.752 5.26438C0.514211 5.02809 0.325386 4.7472 0.196344 4.43781C0.0673015 4.12842 0.000579132 3.7966 0 3.46138C0 2.78438 0.27 2.13638 0.753 1.65838C1.23689 1.17954 1.89024 0.911078 2.571 0.911377C3.253 0.911377 3.907 1.18038 4.39 1.65838C4.872 2.13638 5.143 2.78438 5.143 3.46138Z" fill="#484848"/>
</svg>
