<svg width="35" height="35" viewBox="0 0 35 35" fill="none" xmlns="http://www.w3.org/2000/svg">
<circle cx="17.5" cy="17.5" r="17.5" fill="white"/>
<path d="M15.5252 29.2428C13.4753 29.1397 11.6329 28.5828 10.142 27.6158C7.89894 26.1609 6.23656 23.6161 5.4019 20.3595C5.17975 19.4927 4.92634 17.5558 5.01986 17.4394C5.16977 17.2528 8.04299 17.5814 9.15464 17.9123C9.25135 17.9411 9.33047 17.9484 9.33047 17.9285C9.33047 16.5614 9.44838 15.2276 9.66139 14.185C9.82907 13.3643 9.86314 13.2653 9.97774 13.2653C10.1045 13.2653 11.6509 13.8551 12.0439 14.0533C12.7359 14.4023 13.7731 15.0406 14.4321 15.5229C14.5749 15.6274 14.6985 15.7038 14.7068 15.6928C14.7152 15.6818 14.8782 15.4104 15.0691 15.0896C15.4905 14.3816 16.1642 13.4728 16.8388 12.7025C17.263 12.218 17.3656 12.1291 17.4999 12.1291C17.6343 12.1291 17.7368 12.218 18.161 12.7025C18.8356 13.4728 19.5093 14.3816 19.9307 15.0896C20.1216 15.4104 20.2846 15.6818 20.293 15.6928C20.3013 15.7038 20.4249 15.6274 20.5677 15.5229C21.2267 15.0406 22.2639 14.4023 22.9559 14.0533C23.3489 13.8551 24.8954 13.2653 25.0221 13.2653C25.1367 13.2653 25.1707 13.3643 25.3384 14.185C25.5514 15.2276 25.6693 16.5614 25.6693 17.9285C25.6693 17.9483 25.7485 17.9411 25.8452 17.9123C26.9568 17.5814 29.83 17.2528 29.98 17.4394C30.0735 17.5558 29.8201 19.4927 29.5979 20.3595C28.7633 23.6161 27.1009 26.1609 24.8578 27.6158C23.3133 28.6176 21.6079 29.1199 19.3123 29.2492C18.7446 29.2812 18.6131 29.2493 18.6443 29.0873C18.6595 29.0083 18.7847 28.9653 19.2853 28.8671C20.1392 28.6996 20.7003 28.5052 21.5576 28.08C24.6717 26.5355 26.6818 23.9611 27.5846 20.3607C27.6917 19.9337 27.7793 19.5667 27.7793 19.5453C27.7793 19.5015 27.2022 19.5626 26.7514 19.6542C26.4233 19.7209 25.5184 19.9983 25.2636 20.1103C23.426 20.9182 22.5816 21.4299 21.5983 22.3316C21.3131 22.5931 21.2929 22.6295 21.1778 23.089C20.6851 25.0561 19.8792 26.6483 18.6663 28.0507C18.4048 28.3531 18.229 28.4358 18.1707 28.2839C18.1547 28.2421 18.2763 27.9555 18.441 27.6471C19.2745 26.0863 19.8121 24.3173 19.9317 22.7421C20.1044 20.4661 19.3834 17.7226 18.1145 15.8278C17.5894 15.0139 17.2833 15.2364 16.8853 15.8278C15.6164 17.7226 14.8954 20.4661 15.0681 22.7421C15.1877 24.3173 15.7253 26.0863 16.5588 27.6471C16.7235 27.9555 16.8451 28.2421 16.8291 28.2839C16.7708 28.4358 16.595 28.3531 16.3335 28.0507C15.1206 26.6483 14.3147 25.0561 13.822 23.089C13.7069 22.6295 13.6867 22.5931 13.4015 22.3316C12.4182 21.4299 11.5739 20.9182 9.73624 20.1103C9.4814 19.9983 8.57655 19.7209 8.24842 19.6542C7.79764 19.5626 7.22048 19.5015 7.22048 19.5453C7.22048 19.5667 7.3081 19.9337 7.41519 20.3607C8.31802 23.9611 10.3281 26.5355 13.4422 28.08C14.2995 28.5052 14.8606 28.6996 15.7145 28.8671C16.2151 28.9653 16.3403 29.0083 16.3555 29.0873C16.3805 29.2172 16.271 29.28 16.0391 29.2685C15.935 29.2633 15.7037 29.2517 15.5252 29.2428ZM13.6034 19.2244C13.6376 18.9163 13.7268 18.4214 13.8016 18.1247C13.8764 17.828 13.9251 17.5528 13.9099 17.5132C13.8499 17.3567 11.5924 15.9704 11.3977 15.9704C11.2675 15.9704 11.2066 17.9022 11.3177 18.5116C11.3584 18.7352 11.3857 18.7669 11.6805 18.9326C12.1776 19.2121 12.6774 19.5569 13.0906 19.9054L13.4693 20.2249L13.5053 20.0047C13.5251 19.8837 13.5693 19.5325 13.6034 19.2244ZM22.6443 19.3489C22.8402 19.2185 23.144 19.0312 23.3193 18.9326C23.6141 18.7669 23.6414 18.7352 23.6821 18.5116C23.7932 17.9022 23.7323 15.9704 23.6021 15.9704C23.4078 15.9704 21.15 17.3566 21.0901 17.5126C21.075 17.552 21.1245 17.8359 21.2002 18.1434C21.326 18.6541 21.3925 19.0808 21.4792 19.9308L21.5106 20.2392L21.8993 19.9126C22.1131 19.733 22.4483 19.4793 22.6443 19.3489ZM5.81383 16.4979C5.81384 16.4309 5.86207 16.084 5.92102 15.7269C6.45181 12.5116 8.26394 9.71597 10.9983 7.89406C12.3354 7.00311 14.0638 6.34677 15.7416 6.09281C16.5592 5.96906 18.4406 5.96906 19.2582 6.09281C21.8395 6.48352 24.1264 7.65002 25.9183 9.48989C27.6251 11.2424 28.6832 13.3306 29.0788 15.7269C29.2381 16.6923 29.264 16.6196 28.7606 16.6196H28.3353L28.2986 16.2544C28.2784 16.0536 28.2 15.6121 28.1245 15.2734C27.2409 11.3127 24.2088 8.17793 20.2982 7.18205C19.285 6.92403 18.7047 6.85652 17.4999 6.85652C16.2951 6.85652 15.7149 6.92403 14.7016 7.18205C10.791 8.17793 7.75896 11.3127 6.87534 15.2734C6.79977 15.6121 6.72142 16.0536 6.70123 16.2544L6.66452 16.6196H6.23917C5.83413 16.6196 5.81382 16.6138 5.81383 16.4979Z" fill="#FF8541"/>
</svg>
