<svg width="102" height="80" viewBox="0 0 102 80" fill="none" xmlns="http://www.w3.org/2000/svg">
<path d="M46.2606 55.8465C41.3408 55.599 36.9191 54.2627 33.341 51.9419C27.9577 48.4501 23.968 42.3425 21.9648 34.5266C21.4316 32.4463 20.8234 27.7977 21.0479 27.5183C21.4077 27.0705 28.3034 27.8592 30.9713 28.6533C31.2034 28.7224 31.3933 28.7399 31.3933 28.6922C31.3933 25.4113 31.6763 22.2101 32.1876 19.7079C32.59 17.7382 32.6717 17.5005 32.9468 17.5005C33.2509 17.5005 36.9624 18.916 37.9057 19.3918C39.5664 20.2294 42.0557 21.7612 43.6374 22.9188C43.98 23.1695 44.2766 23.353 44.2966 23.3266C44.3166 23.3002 44.7079 22.6487 45.1661 21.8788C46.1773 20.1796 47.7944 17.9984 49.4134 16.1498C50.4315 14.9871 50.6775 14.7738 51 14.7738C51.3224 14.7738 51.5685 14.9871 52.5867 16.1498C54.2056 17.9984 55.8227 20.1796 56.8339 21.8788C57.2921 22.6487 57.6834 23.3002 57.7034 23.3266C57.7234 23.353 58.02 23.1695 58.3626 22.9188C59.9443 21.7612 62.4336 20.2294 64.0943 19.3918C65.0376 18.916 68.7491 17.5005 69.0532 17.5005C69.3282 17.5005 69.41 17.7382 69.8124 19.7079C70.3237 22.2101 70.6067 25.4113 70.6067 28.6922C70.6067 28.7399 70.7966 28.7224 71.0286 28.6533C73.6966 27.8592 80.5923 27.0705 80.9521 27.5183C81.1766 27.7977 80.5684 32.4463 80.0352 34.5266C78.032 42.3425 74.0423 48.4501 68.659 51.9419C64.9521 54.3462 60.8593 55.5517 55.3498 55.8619C53.9872 55.9387 53.6717 55.8622 53.7466 55.4733C53.7831 55.2837 54.0835 55.1805 55.285 54.9448C57.3343 54.5428 58.6811 54.0763 60.7384 53.0559C68.2124 49.349 73.0365 43.1704 75.2033 34.5295C75.4603 33.5046 75.6706 32.624 75.6706 32.5726C75.6706 32.4674 74.2854 32.6141 73.2036 32.834C72.4161 32.994 70.2444 33.6597 69.6328 33.9286C65.2225 35.8676 63.1961 37.0956 60.8362 39.2597C60.1517 39.8873 60.1032 39.9747 59.827 41.0775C58.6445 45.7985 56.7102 49.6198 53.7994 52.9856C53.1717 53.7114 52.7498 53.9098 52.6099 53.5451C52.5714 53.4449 52.8634 52.7571 53.2587 52.0169C55.259 48.2711 56.5493 44.0253 56.8362 40.2448C57.2509 34.7824 55.5204 28.198 52.475 23.6506C51.2147 21.6972 50.4802 22.2312 49.525 23.6506C46.4796 28.198 44.7491 34.7824 45.1638 40.2448C45.4507 44.0253 46.741 48.2711 48.7413 52.0169C49.1366 52.7571 49.4286 53.4449 49.3901 53.5451C49.2502 53.9098 48.8283 53.7114 48.2006 52.9856C45.2898 49.6198 43.3555 45.7985 42.173 41.0775C41.8968 39.9747 41.8483 39.8873 41.1638 39.2597C38.8039 37.0956 36.7775 35.8676 32.3672 33.9286C31.7556 33.6597 29.5839 32.994 28.7964 32.834C27.7146 32.6141 26.3294 32.4674 26.3294 32.5726C26.3294 32.624 26.5397 33.5046 26.7967 34.5295C28.9635 43.1704 33.7876 49.349 41.2616 53.0559C43.3189 54.0763 44.6657 54.5428 46.715 54.9448C47.9165 55.1805 48.2169 55.2837 48.2534 55.4733C48.3135 55.7852 48.0506 55.9358 47.4942 55.9082C47.2442 55.8958 46.6891 55.868 46.2606 55.8465ZM41.6485 31.8024C41.7304 31.0629 41.9444 29.8753 42.124 29.1632C42.3036 28.4511 42.4206 27.7907 42.384 27.6955C42.24 27.32 36.8221 23.9928 36.3548 23.9928C36.0422 23.9928 35.8961 28.6291 36.1626 30.0916C36.2604 30.6283 36.326 30.7044 37.0334 31.1021C38.2264 31.7729 39.426 32.6004 40.4176 33.4369L41.3265 34.2035L41.413 33.6752C41.4605 33.3846 41.5665 32.5419 41.6485 31.8024ZM63.3464 32.1012C63.8168 31.7883 64.5458 31.3387 64.9666 31.1021C65.674 30.7044 65.7396 30.6283 65.8374 30.0916C66.1039 28.6291 65.9578 23.9928 65.6452 23.9928C65.179 23.9928 59.7601 27.3197 59.6164 27.6942C59.5802 27.7887 59.6991 28.4699 59.8808 29.208C60.1825 30.4337 60.3423 31.4577 60.5502 33.4977L60.6257 34.238L61.5585 33.4541C62.0715 33.023 62.8761 32.4142 63.3464 32.1012ZM22.9534 25.2588C22.9534 25.0981 23.0692 24.2655 23.2107 23.4085C24.4846 15.6917 28.8337 8.98217 35.3961 4.60959C38.6052 2.47131 42.7533 0.896092 46.78 0.286594C48.7422 -0.0104078 53.2578 -0.0104078 55.22 0.286594C61.415 1.2243 66.9037 4.02388 71.2041 8.43959C75.3004 12.6457 77.8399 17.6573 78.7893 23.4085C79.1718 25.7253 79.2339 25.5509 78.0258 25.5509H77.0049L76.9168 24.6745C76.8683 24.1924 76.6803 23.1329 76.499 22.32C74.3783 12.8143 67.1013 5.29087 57.7159 2.90077C55.2841 2.28151 53.8915 2.11949 51 2.11949C48.1085 2.11949 46.7159 2.28151 44.2841 2.90077C34.8987 5.29087 27.6217 12.8143 25.501 22.32C25.3197 23.1329 25.1316 24.1924 25.0832 24.6745L24.9951 25.5509H23.9742C23.0021 25.5509 22.9534 25.537 22.9534 25.2588Z" fill="#FFBE9A"/>
<path d="M4.98438 75.9114H2.53125L2.54688 74.2239H4.98438C5.64583 74.2239 6.20052 74.078 6.64844 73.7864C7.09635 73.4895 7.4349 73.065 7.66406 72.5129C7.89323 71.9556 8.00781 71.289 8.00781 70.5129V69.927C8.00781 69.328 7.94271 68.7994 7.8125 68.3411C7.68229 67.8827 7.48958 67.4973 7.23438 67.1848C6.98438 66.8723 6.67448 66.6353 6.30469 66.4739C5.9349 66.3124 5.51042 66.2317 5.03125 66.2317H2.48438V64.5364H5.03125C5.79167 64.5364 6.48438 64.664 7.10938 64.9192C7.73958 65.1744 8.28385 65.5416 8.74219 66.0208C9.20573 66.4947 9.5599 67.0624 9.80469 67.7239C10.0547 68.3853 10.1797 69.1249 10.1797 69.9426V70.5129C10.1797 71.3254 10.0547 72.065 9.80469 72.7317C9.5599 73.3931 9.20573 73.9609 8.74219 74.4348C8.28385 74.9088 7.73698 75.2734 7.10156 75.5286C6.46615 75.7838 5.76042 75.9114 4.98438 75.9114ZM3.73438 64.5364V75.9114H1.58594V64.5364H3.73438ZM11.4844 71.7708V71.6067C11.4844 70.9869 11.5729 70.4166 11.75 69.8958C11.9271 69.3697 12.1849 68.914 12.5234 68.5286C12.862 68.1431 13.276 67.8437 13.7656 67.6301C14.2552 67.4114 14.8125 67.302 15.4375 67.302C16.0729 67.302 16.6354 67.4114 17.125 67.6301C17.6198 67.8437 18.0365 68.1431 18.375 68.5286C18.7135 68.914 18.9714 69.3697 19.1484 69.8958C19.3255 70.4166 19.4141 70.9869 19.4141 71.6067V71.7708C19.4141 72.3853 19.3255 72.9556 19.1484 73.4817C18.9714 74.0025 18.7135 74.4583 18.375 74.8489C18.0365 75.2343 17.6224 75.5338 17.1328 75.7473C16.6432 75.9609 16.0833 76.0676 15.4531 76.0676C14.8281 76.0676 14.2682 75.9609 13.7734 75.7473C13.2786 75.5338 12.862 75.2343 12.5234 74.8489C12.1849 74.4583 11.9271 74.0025 11.75 73.4817C11.5729 72.9556 11.4844 72.3853 11.4844 71.7708ZM13.5469 71.6067V71.7708C13.5469 72.1405 13.5833 72.4869 13.6562 72.8098C13.7292 73.1327 13.8411 73.4166 13.9922 73.6614C14.1432 73.9062 14.3385 74.0989 14.5781 74.2395C14.8229 74.3749 15.1146 74.4426 15.4531 74.4426C15.7865 74.4426 16.0729 74.3749 16.3125 74.2395C16.5521 74.0989 16.7474 73.9062 16.8984 73.6614C17.0547 73.4166 17.1693 73.1327 17.2422 72.8098C17.3151 72.4869 17.3516 72.1405 17.3516 71.7708V71.6067C17.3516 71.2421 17.3151 70.901 17.2422 70.5833C17.1693 70.2603 17.0547 69.9765 16.8984 69.7317C16.7474 69.4817 16.5495 69.2864 16.3047 69.1458C16.0651 68.9999 15.776 68.927 15.4375 68.927C15.1042 68.927 14.8177 68.9999 14.5781 69.1458C14.3385 69.2864 14.1432 69.4817 13.9922 69.7317C13.8411 69.9765 13.7292 70.2603 13.6562 70.5833C13.5833 70.901 13.5469 71.2421 13.5469 71.6067ZM24.9141 67.4583V68.9426H20.0703V67.4583H24.9141ZM21.3672 65.3801H23.4375V73.4739C23.4375 73.7239 23.4714 73.9166 23.5391 74.052C23.6068 74.1874 23.7083 74.2786 23.8438 74.3254C23.9792 74.3723 24.1406 74.3958 24.3281 74.3958C24.4635 74.3958 24.5885 74.3879 24.7031 74.3723C24.8177 74.3567 24.9141 74.3411 24.9922 74.3254L25 75.8723C24.8281 75.9296 24.6328 75.9765 24.4141 76.0129C24.2005 76.0494 23.9583 76.0676 23.6875 76.0676C23.224 76.0676 22.8177 75.9895 22.4688 75.8333C22.1198 75.6718 21.849 75.414 21.6562 75.0598C21.4635 74.7004 21.3672 74.2265 21.3672 73.6379V65.3801ZM30.0859 76.0676C29.4453 76.0676 28.8698 75.9635 28.3594 75.7551C27.849 75.5468 27.4141 75.2577 27.0547 74.8879C26.7005 74.5129 26.4271 74.078 26.2344 73.5833C26.0469 73.0833 25.9531 72.5468 25.9531 71.9739V71.6614C25.9531 71.0103 26.0469 70.4192 26.2344 69.8879C26.4219 69.3515 26.6875 68.8905 27.0312 68.5051C27.375 68.1197 27.7865 67.8228 28.2656 67.6145C28.7448 67.4062 29.2734 67.302 29.8516 67.302C30.4505 67.302 30.9792 67.4036 31.4375 67.6067C31.8958 67.8046 32.2786 68.0859 32.5859 68.4504C32.8932 68.815 33.125 69.2525 33.2812 69.7629C33.4375 70.2681 33.5156 70.828 33.5156 71.4426V72.3098H26.8906V70.8879H31.4844V70.7317C31.474 70.4036 31.4115 70.1041 31.2969 69.8333C31.1823 69.5572 31.0052 69.3385 30.7656 69.177C30.526 69.0103 30.2161 68.927 29.8359 68.927C29.5286 68.927 29.2604 68.9947 29.0312 69.1301C28.8073 69.2603 28.6198 69.4478 28.4688 69.6926C28.3229 69.9322 28.2135 70.2187 28.1406 70.552C28.0677 70.8853 28.0312 71.2551 28.0312 71.6614V71.9739C28.0312 72.328 28.0781 72.6562 28.1719 72.9583C28.2708 73.2603 28.4141 73.5234 28.6016 73.7473C28.7943 73.9661 29.0234 74.1379 29.2891 74.2629C29.5599 74.3827 29.8672 74.4426 30.2109 74.4426C30.6432 74.4426 31.0339 74.3593 31.3828 74.1926C31.737 74.0208 32.0443 73.7681 32.3047 73.4348L33.3438 74.5129C33.1667 74.7734 32.9271 75.0234 32.625 75.2629C32.3281 75.5025 31.9688 75.6978 31.5469 75.8489C31.125 75.9947 30.638 76.0676 30.0859 76.0676ZM36.9609 63.9036V75.9114H34.8984V63.9036H36.9609ZM42.2578 67.4583L38.5781 71.5911L36.5859 73.6145L35.9297 72.0129L37.4688 70.0754L39.7656 67.4583H42.2578ZM40.1484 75.9114L37.5312 71.9739L38.9062 70.6379L42.5391 75.9114H40.1484ZM51.8672 71.7629H48.9375V70.0754H51.8672C52.3464 70.0754 52.7344 69.9973 53.0312 69.8411C53.3333 69.6796 53.5547 69.4609 53.6953 69.1848C53.8359 68.9036 53.9062 68.5833 53.9062 68.2239C53.9062 67.8749 53.8359 67.5494 53.6953 67.2473C53.5547 66.9452 53.3333 66.7004 53.0312 66.5129C52.7344 66.3254 52.3464 66.2317 51.8672 66.2317H49.6406V75.9114H47.4922V64.5364H51.8672C52.7526 64.5364 53.5078 64.6952 54.1328 65.0129C54.763 65.3254 55.2422 65.7603 55.5703 66.3176C55.9036 66.8697 56.0703 67.4999 56.0703 68.2083C56.0703 68.9426 55.9036 69.5754 55.5703 70.1067C55.2422 70.6379 54.763 71.0468 54.1328 71.3333C53.5078 71.6197 52.7526 71.7629 51.8672 71.7629ZM57.125 71.7708V71.6067C57.125 70.9869 57.2135 70.4166 57.3906 69.8958C57.5677 69.3697 57.8255 68.914 58.1641 68.5286C58.5026 68.1431 58.9167 67.8437 59.4062 67.6301C59.8958 67.4114 60.4531 67.302 61.0781 67.302C61.7135 67.302 62.276 67.4114 62.7656 67.6301C63.2604 67.8437 63.6771 68.1431 64.0156 68.5286C64.3542 68.914 64.612 69.3697 64.7891 69.8958C64.9661 70.4166 65.0547 70.9869 65.0547 71.6067V71.7708C65.0547 72.3853 64.9661 72.9556 64.7891 73.4817C64.612 74.0025 64.3542 74.4583 64.0156 74.8489C63.6771 75.2343 63.263 75.5338 62.7734 75.7473C62.2839 75.9609 61.724 76.0676 61.0938 76.0676C60.4688 76.0676 59.9089 75.9609 59.4141 75.7473C58.9193 75.5338 58.5026 75.2343 58.1641 74.8489C57.8255 74.4583 57.5677 74.0025 57.3906 73.4817C57.2135 72.9556 57.125 72.3853 57.125 71.7708ZM59.1875 71.6067V71.7708C59.1875 72.1405 59.224 72.4869 59.2969 72.8098C59.3698 73.1327 59.4818 73.4166 59.6328 73.6614C59.7839 73.9062 59.9792 74.0989 60.2188 74.2395C60.4635 74.3749 60.7552 74.4426 61.0938 74.4426C61.4271 74.4426 61.7135 74.3749 61.9531 74.2395C62.1927 74.0989 62.388 73.9062 62.5391 73.6614C62.6953 73.4166 62.8099 73.1327 62.8828 72.8098C62.9557 72.4869 62.9922 72.1405 62.9922 71.7708V71.6067C62.9922 71.2421 62.9557 70.901 62.8828 70.5833C62.8099 70.2603 62.6953 69.9765 62.5391 69.7317C62.388 69.4817 62.1901 69.2864 61.9453 69.1458C61.7057 68.9999 61.4167 68.927 61.0781 68.927C60.7448 68.927 60.4583 68.9999 60.2188 69.1458C59.9792 69.2864 59.7839 69.4817 59.6328 69.7317C59.4818 69.9765 59.3698 70.2603 59.2969 70.5833C59.224 70.901 59.1875 71.2421 59.1875 71.6067ZM68.5781 63.9114V75.9114H66.5078V63.9114H68.5781ZM68.25 71.3801H67.6406C67.6406 70.7916 67.7188 70.2499 67.875 69.7551C68.0312 69.2603 68.2526 68.8306 68.5391 68.4661C68.8255 68.0963 69.1667 67.8098 69.5625 67.6067C69.9635 67.4036 70.4062 67.302 70.8906 67.302C71.3073 67.302 71.6849 67.3619 72.0234 67.4817C72.3672 67.5963 72.6615 67.7812 72.9062 68.0364C73.151 68.2916 73.3385 68.6249 73.4688 69.0364C73.6042 69.4426 73.6719 69.9374 73.6719 70.5208V75.9114H71.5938V70.5051C71.5938 70.1145 71.5365 69.8072 71.4219 69.5833C71.3073 69.3541 71.1432 69.19 70.9297 69.0911C70.7214 68.9921 70.4635 68.9426 70.1562 68.9426C69.8229 68.9426 69.5365 69.0077 69.2969 69.1379C69.0573 69.2629 68.8594 69.4374 68.7031 69.6614C68.5521 69.8853 68.4375 70.1431 68.3594 70.4348C68.2865 70.7265 68.25 71.0416 68.25 71.3801ZM75.125 71.7708V71.6067C75.125 70.9869 75.2135 70.4166 75.3906 69.8958C75.5677 69.3697 75.8255 68.914 76.1641 68.5286C76.5026 68.1431 76.9167 67.8437 77.4062 67.6301C77.8958 67.4114 78.4531 67.302 79.0781 67.302C79.7135 67.302 80.276 67.4114 80.7656 67.6301C81.2604 67.8437 81.6771 68.1431 82.0156 68.5286C82.3542 68.914 82.612 69.3697 82.7891 69.8958C82.9661 70.4166 83.0547 70.9869 83.0547 71.6067V71.7708C83.0547 72.3853 82.9661 72.9556 82.7891 73.4817C82.612 74.0025 82.3542 74.4583 82.0156 74.8489C81.6771 75.2343 81.263 75.5338 80.7734 75.7473C80.2839 75.9609 79.724 76.0676 79.0938 76.0676C78.4688 76.0676 77.9089 75.9609 77.4141 75.7473C76.9193 75.5338 76.5026 75.2343 76.1641 74.8489C75.8255 74.4583 75.5677 74.0025 75.3906 73.4817C75.2135 72.9556 75.125 72.3853 75.125 71.7708ZM77.1875 71.6067V71.7708C77.1875 72.1405 77.224 72.4869 77.2969 72.8098C77.3698 73.1327 77.4818 73.4166 77.6328 73.6614C77.7839 73.9062 77.9792 74.0989 78.2188 74.2395C78.4635 74.3749 78.7552 74.4426 79.0938 74.4426C79.4271 74.4426 79.7135 74.3749 79.9531 74.2395C80.1927 74.0989 80.388 73.9062 80.5391 73.6614C80.6953 73.4166 80.8099 73.1327 80.8828 72.8098C80.9557 72.4869 80.9922 72.1405 80.9922 71.7708V71.6067C80.9922 71.2421 80.9557 70.901 80.8828 70.5833C80.8099 70.2603 80.6953 69.9765 80.5391 69.7317C80.388 69.4817 80.1901 69.2864 79.9453 69.1458C79.7057 68.9999 79.4167 68.927 79.0781 68.927C78.7448 68.927 78.4583 68.9999 78.2188 69.1458C77.9792 69.2864 77.7839 69.4817 77.6328 69.7317C77.4818 69.9765 77.3698 70.2603 77.2969 70.5833C77.224 70.901 77.1875 71.2421 77.1875 71.6067ZM89.625 74.1145V63.9114H91.7031V75.9114H89.8281L89.625 74.1145ZM84.1953 71.7864V71.6223C84.1953 70.9765 84.2682 70.3905 84.4141 69.8645C84.5651 69.3333 84.7839 68.8775 85.0703 68.4973C85.3568 68.1171 85.7031 67.8228 86.1094 67.6145C86.5208 67.4062 86.987 67.302 87.5078 67.302C88.013 67.302 88.4531 67.4036 88.8281 67.6067C89.2083 67.8098 89.5312 68.0989 89.7969 68.4739C90.0677 68.8489 90.2839 69.2942 90.4453 69.8098C90.6068 70.3202 90.724 70.8827 90.7969 71.4973V71.9426C90.724 72.5416 90.6068 73.0911 90.4453 73.5911C90.2839 74.0911 90.0677 74.5286 89.7969 74.9036C89.5312 75.2734 89.2083 75.5598 88.8281 75.7629C88.4479 75.9661 88.0026 76.0676 87.4922 76.0676C86.9766 76.0676 86.513 75.9609 86.1016 75.7473C85.6953 75.5338 85.349 75.2343 85.0625 74.8489C84.7812 74.4635 84.5651 74.0103 84.4141 73.4895C84.2682 72.9687 84.1953 72.401 84.1953 71.7864ZM86.2656 71.6223V71.7864C86.2656 72.151 86.2969 72.4921 86.3594 72.8098C86.4219 73.1275 86.5234 73.4088 86.6641 73.6536C86.8047 73.8931 86.9844 74.0806 87.2031 74.2161C87.4271 74.3515 87.6979 74.4192 88.0156 74.4192C88.4219 74.4192 88.7552 74.3306 89.0156 74.1536C89.2812 73.9713 89.487 73.7239 89.6328 73.4114C89.7786 73.0937 89.8724 72.7369 89.9141 72.3411V71.1145C89.8932 70.802 89.8385 70.5129 89.75 70.2473C89.6667 69.9817 89.5469 69.7525 89.3906 69.5598C89.2396 69.3671 89.0521 69.2161 88.8281 69.1067C88.6042 68.9973 88.3385 68.9426 88.0312 68.9426C87.7135 68.9426 87.4427 69.0129 87.2188 69.1536C86.9948 69.289 86.8125 69.4791 86.6719 69.7239C86.5312 69.9687 86.4271 70.2525 86.3594 70.5754C86.2969 70.8984 86.2656 71.2473 86.2656 71.6223ZM96.0469 74.9739L98.3125 67.4583H100.523L97.1328 77.1926C97.0547 77.401 96.9531 77.6275 96.8281 77.8723C96.7083 78.1171 96.5469 78.3489 96.3438 78.5676C96.1406 78.7916 95.8854 78.9739 95.5781 79.1145C95.276 79.2551 94.9089 79.3254 94.4766 79.3254C94.2891 79.3254 94.1224 79.3124 93.9766 79.2864C93.8307 79.2603 93.6771 79.2265 93.5156 79.1848V77.6379C93.5677 77.6431 93.6276 77.6458 93.6953 77.6458C93.7682 77.651 93.8307 77.6536 93.8828 77.6536C94.1849 77.6536 94.4349 77.6171 94.6328 77.5442C94.8307 77.4765 94.9896 77.3645 95.1094 77.2083C95.2344 77.0572 95.3385 76.8593 95.4219 76.6145L96.0469 74.9739ZM94.9297 67.4583L96.8438 73.6848L97.1797 75.8645L95.7578 76.1223L92.7031 67.4583H94.9297Z" fill="#FFBE9A"/>
</svg>
